<svg width="72" height="72" viewBox="0 0 72 72" fill="none" xmlns="http://www.w3.org/2000/svg">
<path d="M17.902 31.658C16.714 32.522 14.89 33.218 12.43 33.746L11.656 31.406C13.708 30.914 15.16 30.368 16.012 29.768C16.876 29.156 17.308 28.472 17.308 27.716V27.104H19.936V27.716C19.936 28.364 19.828 28.976 19.612 29.552L25.408 31.46L24.454 33.746L17.902 31.658ZM26.524 36.518H19.936V37.724H20.62C21.496 37.724 22.258 37.862 22.906 38.138C23.566 38.414 24.07 38.792 24.418 39.272C24.766 39.752 24.94 40.298 24.94 40.91C24.94 41.522 24.766 42.068 24.418 42.548C24.07 43.028 23.566 43.406 22.906 43.682C22.258 43.958 21.496 44.096 20.62 44.096H16.444C15.568 44.096 14.8 43.958 14.14 43.682C13.492 43.406 12.994 43.028 12.646 42.548C12.298 42.068 12.124 41.522 12.124 40.91C12.124 40.298 12.298 39.752 12.646 39.272C12.994 38.792 13.492 38.414 14.14 38.138C14.8 37.862 15.568 37.724 16.444 37.724H17.128V36.518H10.54V34.142H26.524V36.518ZM22.132 40.892C22.132 40.604 21.964 40.388 21.628 40.244C21.304 40.1 20.776 40.028 20.044 40.028H17.02C16.288 40.028 15.754 40.1 15.418 40.244C15.094 40.388 14.932 40.604 14.932 40.892C14.932 41.18 15.094 41.396 15.418 41.54C15.754 41.684 16.288 41.756 17.02 41.756H20.044C20.776 41.756 21.304 41.684 21.628 41.54C21.964 41.396 22.132 41.18 22.132 40.892ZM41.5044 32.882H43.7544V35.42H41.5044V43.916H38.6784V27.014H41.5044V32.882ZM33.8184 31.892C33.7824 32.78 33.6564 33.644 33.4404 34.484L37.8324 39.65L35.7084 41.54L32.2704 37.49C31.5024 38.93 30.4584 40.334 29.1384 41.702L27.1044 39.812C28.3764 38.456 29.3304 37.136 29.9664 35.852C30.6024 34.556 30.9444 33.236 30.9924 31.892H27.7344V29.336H31.0284V27.032H33.8544V29.336H37.2204V31.892H33.8184ZM54.0727 38.03V40.28H60.6607V42.836H44.6767V40.28H51.2647V38.03H46.4407V31.766H56.0887V30.47H46.3507V27.968H58.8967V34.214H49.2487V35.582H59.2567V38.03H54.0727Z" fill="#006794"/>
</svg>
