<svg width="68" height="24" viewBox="0 0 68 24" fill="none" xmlns="http://www.w3.org/2000/svg">
<path d="M10.536 6.544C8.952 7.696 6.52 8.624 3.24 9.328L2.208 6.208C4.944 5.552 6.88 4.824 8.016 4.024C9.168 3.208 9.744 2.296 9.744 1.288V0.472H13.248V1.288C13.248 2.152 13.104 2.968 12.816 3.736L20.544 6.28L19.272 9.328L10.536 6.544ZM22.032 13.024H13.248V14.632H14.16C15.328 14.632 16.344 14.816 17.208 15.184C18.088 15.552 18.76 16.056 19.224 16.696C19.688 17.336 19.92 18.064 19.92 18.88C19.92 19.696 19.688 20.424 19.224 21.064C18.76 21.704 18.088 22.208 17.208 22.576C16.344 22.944 15.328 23.128 14.16 23.128H8.592C7.424 23.128 6.4 22.944 5.52 22.576C4.656 22.208 3.992 21.704 3.528 21.064C3.064 20.424 2.832 19.696 2.832 18.88C2.832 18.064 3.064 17.336 3.528 16.696C3.992 16.056 4.656 15.552 5.52 15.184C6.4 14.816 7.424 14.632 8.592 14.632H9.504V13.024H0.72V9.856H22.032V13.024ZM16.176 18.856C16.176 18.472 15.952 18.184 15.504 17.992C15.072 17.8 14.368 17.704 13.392 17.704H9.36C8.384 17.704 7.672 17.8 7.224 17.992C6.792 18.184 6.576 18.472 6.576 18.856C6.576 19.24 6.792 19.528 7.224 19.72C7.672 19.912 8.384 20.008 9.36 20.008H13.392C14.368 20.008 15.072 19.912 15.504 19.72C15.952 19.528 16.176 19.24 16.176 18.856ZM42.0058 8.176H45.0058V11.56H42.0058V22.888H38.2378V0.352H42.0058V8.176ZM31.7578 6.856C31.7098 8.04 31.5418 9.192 31.2538 10.312L37.1098 17.2L34.2778 19.72L29.6938 14.32C28.6698 16.24 27.2778 18.112 25.5178 19.936L22.8058 17.416C24.5018 15.608 25.7738 13.848 26.6218 12.136C27.4698 10.408 27.9258 8.648 27.9898 6.856H23.6458V3.448H28.0378V0.375999H31.8058V3.448H36.2938V6.856H31.7578ZM58.7636 15.04V18.04H67.5476V21.448H46.2356V18.04H55.0196V15.04H48.5876V6.688H61.4516V4.96H48.4676V1.624H65.1956V9.952H52.3316V11.776H65.6756V15.04H58.7636Z" fill="#F2F4F6"/>
</svg>
