<svg width="51" height="18" viewBox="0 0 51 18" fill="none" xmlns="http://www.w3.org/2000/svg">
<path d="M7.902 4.658C6.714 5.522 4.89 6.218 2.43 6.746L1.656 4.406C3.708 3.914 5.16 3.368 6.012 2.768C6.876 2.156 7.308 1.472 7.308 0.715999V0.104H9.936V0.715999C9.936 1.364 9.828 1.976 9.612 2.552L15.408 4.46L14.454 6.746L7.902 4.658ZM16.524 9.518H9.936V10.724H10.62C11.496 10.724 12.258 10.862 12.906 11.138C13.566 11.414 14.07 11.792 14.418 12.272C14.766 12.752 14.94 13.298 14.94 13.91C14.94 14.522 14.766 15.068 14.418 15.548C14.07 16.028 13.566 16.406 12.906 16.682C12.258 16.958 11.496 17.096 10.62 17.096H6.444C5.568 17.096 4.8 16.958 4.14 16.682C3.492 16.406 2.994 16.028 2.646 15.548C2.298 15.068 2.124 14.522 2.124 13.91C2.124 13.298 2.298 12.752 2.646 12.272C2.994 11.792 3.492 11.414 4.14 11.138C4.8 10.862 5.568 10.724 6.444 10.724H7.128V9.518H0.54V7.142H16.524V9.518ZM12.132 13.892C12.132 13.604 11.964 13.388 11.628 13.244C11.304 13.1 10.776 13.028 10.044 13.028H7.02C6.288 13.028 5.754 13.1 5.418 13.244C5.094 13.388 4.932 13.604 4.932 13.892C4.932 14.18 5.094 14.396 5.418 14.54C5.754 14.684 6.288 14.756 7.02 14.756H10.044C10.776 14.756 11.304 14.684 11.628 14.54C11.964 14.396 12.132 14.18 12.132 13.892ZM31.5044 5.882H33.7544V8.42H31.5044V16.916H28.6784V0.0139998H31.5044V5.882ZM23.8184 4.892C23.7824 5.78 23.6564 6.644 23.4404 7.484L27.8324 12.65L25.7084 14.54L22.2704 10.49C21.5024 11.93 20.4584 13.334 19.1384 14.702L17.1044 12.812C18.3764 11.456 19.3304 10.136 19.9664 8.852C20.6024 7.556 20.9444 6.236 20.9924 4.892H17.7344V2.336H21.0284V0.0319996H23.8544V2.336H27.2204V4.892H23.8184ZM44.0727 11.03V13.28H50.6607V15.836H34.6767V13.28H41.2647V11.03H36.4407V4.766H46.0887V3.47H36.3507V0.967999H48.8967V7.214H39.2487V8.582H49.2567V11.03H44.0727Z" fill="#006794"/>
</svg>
