<svg width="24" height="24" viewBox="0 0 24 24" fill="none" xmlns="http://www.w3.org/2000/svg">
<mask id="mask0_25_755" style="mask-type:alpha" maskUnits="userSpaceOnUse" x="0" y="0" width="24" height="24">
<rect width="24" height="24" fill="#D9D9D9"/>
</mask>
<g mask="url(#mask0_25_755)">
<path d="M5.01117 21C4.4581 21 3.98464 20.8042 3.59078 20.4125C3.19693 20.0208 3 19.55 3 19V5C3 4.45 3.19693 3.97917 3.59078 3.5875C3.98464 3.19583 4.4581 3 5.01117 3H19.0894C19.6425 3 20.1159 3.19583 20.5098 3.5875C20.9036 3.97917 21.1006 4.45 21.1006 5V19C21.1006 19.55 20.9036 20.0208 20.5098 20.4125C20.1159 20.8042 19.6425 21 19.0894 21H5.01117ZM12.0503 12L14.5642 10.5L17.0782 12V5H12.0503V12Z" fill="#006794"/>
</g>
</svg>
