<svg width="48" height="48" viewBox="0 0 48 48" fill="none" xmlns="http://www.w3.org/2000/svg">
<mask id="mask0_61_2505" style="mask-type:alpha" maskUnits="userSpaceOnUse" x="0" y="0" width="48" height="48">
<rect x="48" y="48" width="48" height="48" transform="rotate(-180 48 48)" fill="#D9D9D9"/>
</mask>
<g mask="url(#mask0_61_2505)">
<path d="M29.1501 20.0002C30.0501 20.0002 30.6751 20.4085 31.0251 21.2252C31.3751 22.0419 31.2334 22.7669 30.6001 23.4002L25.4 28.6002C25.2 28.8002 24.9834 28.9502 24.75 29.0502C24.5167 29.1502 24.2667 29.2002 24 29.2002C23.7334 29.2002 23.4834 29.1502 23.25 29.0502C23.0167 28.9502 22.8 28.8002 22.6 28.6002L17.4 23.4002C16.7667 22.7669 16.625 22.0419 16.975 21.2252C17.325 20.4085 17.95 20.0002 18.85 20.0002L29.1501 20.0002Z" fill="#B0B0B0"/>
</g>
</svg>
