<svg width="16" height="16" viewBox="0 0 16 16" fill="none" xmlns="http://www.w3.org/2000/svg">
<mask id="mask0_192_1715" style="mask-type:alpha" maskUnits="userSpaceOnUse" x="0" y="0" width="16" height="16">
<rect x="16" y="16" width="16" height="16" transform="rotate(-180 16 16)" fill="#D9D9D9"/>
</mask>
<g mask="url(#mask0_192_1715)">
<path d="M5.87591 8L11.0195 13.1436C11.1178 13.2419 11.1663 13.36 11.165 13.4981C11.1637 13.6361 11.1139 13.7543 11.0156 13.8526C10.9174 13.9509 10.7992 14 10.6612 14C10.5231 14 10.405 13.9509 10.3067 13.8526L5.21565 8.7577C5.10796 8.65 5.02932 8.52991 4.97975 8.39743C4.93018 8.26495 4.9054 8.13248 4.9054 8C4.9054 7.86752 4.93018 7.73504 4.97975 7.60257C5.02932 7.47009 5.10796 7.35 5.21565 7.2423L10.3105 2.14743C10.4088 2.04914 10.5263 2.00064 10.6631 2.00192C10.7998 2.0032 10.9174 2.05299 11.0156 2.15128C11.1139 2.24957 11.1631 2.36773 11.1631 2.50577C11.1631 2.6438 11.1139 2.76196 11.0156 2.86025L5.87591 8Z" fill="#B0B0B0"/>
</g>
</svg>
