<svg width="24" height="25" viewBox="0 0 24 25" fill="none" xmlns="http://www.w3.org/2000/svg">
<mask id="mask0_1097_1341" style="mask-type:alpha" maskUnits="userSpaceOnUse" x="0" y="0" width="24" height="25">
<rect y="0.75" width="24" height="24" fill="#D9D9D9"/>
</mask>
<g mask="url(#mask0_1097_1341)">
<path d="M9.63458 21.25C9.13586 21.25 8.7099 21.0734 8.3567 20.7202C8.00348 20.367 7.82688 19.941 7.82688 19.4423V9.9981C7.82688 9.75709 7.87623 9.52536 7.97495 9.30293C8.07367 9.0805 8.20508 8.88723 8.3692 8.72313L13.6596 3.46735C13.8583 3.2789 14.0884 3.16288 14.3499 3.11928C14.6115 3.0757 14.8621 3.1148 15.1019 3.2366C15.3416 3.35839 15.5147 3.53723 15.6211 3.77313C15.7275 4.00901 15.7486 4.25965 15.6845 4.52503L14.6076 9.25003H20.6923C21.1679 9.25003 21.5881 9.4324 21.9528 9.79715C22.3176 10.1619 22.5 10.5821 22.5 11.0577V12.6731C22.5 12.7769 22.4891 12.8891 22.4673 13.0096C22.4455 13.1301 22.4128 13.2423 22.3692 13.3462L19.5038 20.1077C19.3602 20.4282 19.1198 20.6987 18.7827 20.9192C18.4455 21.1397 18.0948 21.25 17.7307 21.25H9.63458ZM4.3077 21.25C3.80898 21.25 3.38303 21.0734 3.02983 20.7202C2.67661 20.367 2.5 19.941 2.5 19.4423V11.0577C2.5 10.559 2.67661 10.1331 3.02983 9.77985C3.38303 9.42664 3.80898 9.25003 4.3077 9.25003H4.51925C5.01797 9.25003 5.44393 9.42664 5.79713 9.77985C6.15033 10.1331 6.32693 10.559 6.32693 11.0577V19.4519C6.32693 19.9506 6.15033 20.375 5.79713 20.725C5.44393 21.075 5.01797 21.25 4.51925 21.25H4.3077Z" fill="#006794"/>
</g>
</svg>
