<svg width="24" height="24" viewBox="0 0 24 24" fill="none" xmlns="http://www.w3.org/2000/svg">
<mask id="mask0_1025_1688" style="mask-type:alpha" maskUnits="userSpaceOnUse" x="0" y="0" width="24" height="24">
<rect width="24" height="24" fill="#D9D9D9"/>
</mask>
<g mask="url(#mask0_1025_1688)">
<mask id="mask1_1025_1688" style="mask-type:alpha" maskUnits="userSpaceOnUse" x="0" y="0" width="24" height="24">
<rect width="24" height="24" fill="#D9D9D9"/>
</mask>
<g mask="url(#mask1_1025_1688)">
<path d="M7.21153 20.5001V8.50014L13.0288 2.73286C13.2275 2.53414 13.4577 2.41555 13.7192 2.37709C13.9807 2.33862 14.2314 2.38349 14.4711 2.51171C14.7108 2.63991 14.8865 2.82195 14.998 3.05784C15.1096 3.29374 15.1333 3.53796 15.0692 3.79051L13.9923 8.50014H20.6923C21.1679 8.50014 21.5881 8.68251 21.9528 9.04726C22.3176 9.41199 22.5 9.83219 22.5 10.3078V11.9232C22.5 12.0281 22.4865 12.1406 22.4596 12.2606C22.4326 12.3805 22.4025 12.4924 22.3692 12.5963L19.5034 19.3589C19.3601 19.6787 19.1198 19.9488 18.7827 20.1693C18.4455 20.3898 18.0937 20.5001 17.7272 20.5001H7.21153ZM8.7115 9.13859V19.0001H17.7307C17.8012 19.0001 17.8734 18.9809 17.9471 18.9424C18.0208 18.9039 18.0769 18.8398 18.1154 18.7501L21 12.0001V10.3078C21 10.2181 20.9711 10.1444 20.9134 10.0867C20.8557 10.029 20.782 10.0001 20.6923 10.0001H12.0961L13.35 4.51934L8.7115 9.13859ZM4.3077 20.5001C3.81058 20.5001 3.38503 20.3231 3.03102 19.9691C2.67701 19.6151 2.5 19.1895 2.5 18.6924V10.3078C2.5 9.81072 2.67701 9.38516 3.03102 9.03116C3.38503 8.67714 3.81058 8.50014 4.3077 8.50014H7.21153V10.0001H4.3077C4.21795 10.0001 4.14423 10.029 4.08653 10.0867C4.02883 10.1444 3.99998 10.2181 3.99998 10.3078V18.6924C3.99998 18.7821 4.02883 18.8559 4.08653 18.9136C4.14423 18.9713 4.21795 19.0001 4.3077 19.0001H7.21153V20.5001H4.3077Z" fill="#006794"/>
</g>
</g>
</svg>
