<svg width="16" height="16" viewBox="0 0 16 16" fill="none" xmlns="http://www.w3.org/2000/svg">
<mask id="mask0_192_1686" style="mask-type:alpha" maskUnits="userSpaceOnUse" x="0" y="0" width="16" height="16">
<rect width="16" height="16" fill="#D9D9D9"/>
</mask>
<g mask="url(#mask0_192_1686)">
<path d="M10.1241 8L4.9805 2.85642C4.88221 2.75813 4.83371 2.63996 4.83499 2.50192C4.83627 2.36388 4.88606 2.24572 4.98435 2.14743C5.08264 2.04914 5.2008 2 5.33884 2C5.47687 2 5.59503 2.04914 5.69332 2.14743L10.7844 7.2423C10.892 7.35 10.9707 7.47009 11.0203 7.60257C11.0698 7.73504 11.0946 7.86752 11.0946 8C11.0946 8.13248 11.0698 8.26496 11.0203 8.39743C10.9707 8.52991 10.892 8.65 10.7844 8.7577L5.68949 13.8526C5.5912 13.9509 5.47367 13.9994 5.33692 13.9981C5.20016 13.9968 5.08264 13.947 4.98435 13.8487C4.88606 13.7504 4.83692 13.6323 4.83692 13.4942C4.83692 13.3562 4.88606 13.238 4.98435 13.1398L10.1241 8Z" fill="#B0B0B0"/>
</g>
</svg>
