<svg width="48" height="48" viewBox="0 0 48 48" fill="none" xmlns="http://www.w3.org/2000/svg">
<mask id="mask0_84_1933" style="mask-type:alpha" maskUnits="userSpaceOnUse" x="0" y="0" width="48" height="48">
<rect x="48" y="48" width="48" height="48" transform="rotate(-180 48 48)" fill="#D9D9D9"/>
</mask>
<g mask="url(#mask0_84_1933)">
<path d="M17.6268 24L33.0575 39.4307C33.3524 39.7256 33.4979 40.0801 33.4941 40.4943C33.4902 40.9084 33.3408 41.2628 33.046 41.5577C32.7511 41.8526 32.3966 42 31.9825 42C31.5684 42 31.2139 41.8526 30.9191 41.5577L15.646 26.2731C15.3229 25.95 15.087 25.5897 14.9383 25.1923C14.7896 24.7949 14.7152 24.3974 14.7152 24C14.7152 23.6026 14.7896 23.2051 14.9383 22.8077C15.087 22.4103 15.3229 22.05 15.646 21.7269L30.9306 6.4423C31.2254 6.14743 31.578 6.00191 31.9883 6.00575C32.3985 6.00962 32.7511 6.15898 33.046 6.45385C33.3408 6.74872 33.4883 7.1032 33.4883 7.5173C33.4883 7.9314 33.3408 8.28588 33.046 8.58075L17.6268 24Z" fill="#B0B0B0"/>
</g>
</svg>
