<svg width="48" height="48" viewBox="0 0 48 48" fill="none" xmlns="http://www.w3.org/2000/svg">
<mask id="mask0_84_1932" style="mask-type:alpha" maskUnits="userSpaceOnUse" x="0" y="0" width="48" height="48">
<rect width="48" height="48" fill="#D9D9D9"/>
</mask>
<g mask="url(#mask0_84_1932)">
<path d="M30.3732 24L14.9425 8.56925C14.6476 8.27438 14.5021 7.91988 14.5059 7.50575C14.5098 7.09165 14.6592 6.73717 14.954 6.4423C15.2489 6.14743 15.6034 6 16.0175 6C16.4316 6 16.7861 6.14743 17.0809 6.4423L32.354 21.7269C32.6771 22.05 32.913 22.4103 33.0617 22.8077C33.2104 23.2051 33.2848 23.6026 33.2848 24C33.2848 24.3974 33.2104 24.7949 33.0617 25.1923C32.913 25.5897 32.6771 25.95 32.354 26.2731L17.0694 41.5577C16.7746 41.8526 16.422 41.9981 16.0117 41.9943C15.6015 41.9904 15.2489 41.841 14.954 41.5462C14.6592 41.2513 14.5117 40.8968 14.5117 40.4827C14.5117 40.0686 14.6592 39.7141 14.954 39.4193L30.3732 24Z" fill="#B0B0B0"/>
</g>
</svg>
